{
  "asset": {
    "version": "2.0",
    "generator": "THREE.GLTFExporter"
  },
  "scenes": [
    {
      "nodes": [0],
      "name": "scene"
    }
  ],
  "scene": 0,
  "nodes": [
    {
      "name": "block",
      "children": [1],
      "mesh": 0
    },
    {
      "name": "socket",
      "matrix": [
         0.0,-1.0, 0.0, 0.0,
        -1.0, 0.0, 0.0, 0.0,
         0.0, 0.0,-1.0, 0.0,
        -1.2, 0.0, 0.0, 1.0
      ]
    }
  ],
  "bufferViews": [
    {
      "buffer": 0,
      "byteOffset": 0,
      "byteLength": 3744,
      "target": 34962,
      "byteStride": 12
    },
    {
      "buffer": 0,
      "byteOffset": 3744,
      "byteLength": 3744,
      "target": 34962,
      "byteStride": 12
    },
    {
      "buffer": 0,
      "byteOffset": 7488,
      "byteLength": 612,
      "target": 34963
    },
    {
      "buffer": 0,
      "byteOffset": 8100,
      "byteLength": 12,
      "target": 34963
    }
  ],
  "buffers": [
    {
      "byteLength": 8112,
      "uri": "data:application/octet-stream;base64,"
    }
  ],
  "accessors": [
    {
      "bufferView": 0,
      "componentType": 5126,
      "count": 312,
      "max": [
        1.1745120286941528,
        1.1745120286941528,
        1.2000000476837158
      ],
      "min": [
        -1.2000000476837158,
        -1.2000000476837158,
        -1.2000000476837158
      ],
      "type": "VEC3"
    },
    {
      "bufferView": 1,
      "componentType": 5126,
      "count": 312,
      "max": [
        0.9148340225219727,
        0.9148319959640503,
        0.999347984790802
      ],
      "min": [
        -0.9999489784240723,
        -0.9999489784240723,
        -0.999347984790802
      ],
      "type": "VEC3"
    },
    {
      "bufferView": 2,
      "componentType": 5123,
      "count": 306,
      "max": [
        305
      ],
      "min": [
        0
      ],
      "type": "SCALAR"
    },
    {
      "bufferView": 3,
      "componentType": 5123,
      "count": 6,
      "max": [
        311
      ],
      "min": [
        306
      ],
      "type": "SCALAR"
    }
  ],
  "materials": [
    {
      "pbrMetallicRoughness": {
        "metallicFactor": 0.5,
        "roughnessFactor": 0.5
      },
      "name": "Standard"
    },
    {
      "pbrMetallicRoughness": {
        "baseColorFactor": [
          0.003922,
          0.235294,
          0.823529,
          1
        ],
        "metallicFactor": 0.5,
        "roughnessFactor": 0.5
      },
      "name": "Standard_ncl1_1"
    }
  ],
  "meshes": [
    {
      "primitives": [
        {
          "mode": 4,
          "attributes": {
            "POSITION": 0,
            "NORMAL": 1
          },
          "indices": 2,
          "material": 0
        },
        {
          "mode": 4,
          "attributes": {
            "POSITION": 0,
            "NORMAL": 1
          },
          "indices": 3,
          "material": 1
        }
      ]
    }
  ]
}